<?xml version="1.0" encoding="UTF-8"?>
<svg id="Layer_2" data-name="Layer 2" xmlns="http://www.w3.org/2000/svg" xmlns:xlink="http://www.w3.org/1999/xlink" viewBox="0 0 3226.8 1505.83">
  <defs>
    <style>
      .cls-1 {
        fill: none;
      }

      .cls-2 {
        fill: #010101;
      }

      .cls-3 {
        fill: #0a2b44;
      }

      .cls-4 {
        fill: #ef3d25;
      }

      .cls-5 {
        fill: #0094d6;
      }

      .cls-6 {
        fill: #f06924;
      }

      .cls-7 {
        clip-path: url(#clippath-1);
      }

      .cls-8 {
        clip-path: url(#clippath-3);
      }

      .cls-9 {
        clip-path: url(#clippath-4);
      }

      .cls-10 {
        clip-path: url(#clippath-2);
      }

      .cls-11 {
        clip-path: url(#clippath-5);
      }

      .cls-12 {
        fill: #06456e;
      }

      .cls-13 {
        fill: #fff;
      }

      .cls-14 {
        fill: #f2633b;
      }

      .cls-15 {
        fill: #0c233f;
      }

      .cls-16 {
        clip-path: url(#clippath);
      }

      .cls-17 {
        fill: #fdb714;
      }
    </style>
    <clipPath id="clippath">
      <rect class="cls-1" x="602.07" y="1168.72" width="380.8" height="337.11"/>
    </clipPath>
    <clipPath id="clippath-1">
      <rect class="cls-1" x="602.07" y="1168.72" width="380.8" height="337.11"/>
    </clipPath>
    <clipPath id="clippath-2">
      <rect class="cls-1" x="1235.34" y="1199.66" width="536.36" height="275.23"/>
    </clipPath>
    <clipPath id="clippath-3">
      <rect class="cls-1" x="1235.34" y="1199.66" width="536.36" height="275.23"/>
    </clipPath>
    <clipPath id="clippath-4">
      <rect class="cls-1" x="1314.31" y="1199.66" width="440.53" height="185.05"/>
    </clipPath>
    <clipPath id="clippath-5">
      <rect class="cls-1" x="1235.34" y="1199.66" width="536.36" height="275.23"/>
    </clipPath>
  </defs>
  <g id="Layer_1" data-name="Layer 1">
    <g>
      <g>
        <path class="cls-3" d="M1207.68,990.53c5.38-1.59,10.24-4.97,13.62-9.43,2.97-3.91,4.8-8.71,5.3-13.63.39-4.31-.26-8.74-1.94-12.72-1.46-3.47-3.62-6.66-6.41-9.24-3.5-3.3-7.94-5.61-12.7-6.59-3.94-.86-8.04-.81-11.93.19-4.51,1.11-8.69,3.36-12.01,6.57-3.61,3.45-6.26,7.91-7.51,12.76-.94,3.67-1.1,7.55-.42,11.32.84,4.81,3.07,9.43,6.38,13.07,3.23,3.6,7.41,6.27,12.03,7.73,3.88,1.17,8.04,1.53,12.1.84,1.17-.2,2.32-.47,3.45-.8h0l.05-.09ZM1203.39,989.7c-.47.14-1,.29-1.63.34-1.96.22-3.7-.06-3.99-.56s1.05-1.1,2.92-1.37c1.96-.22,3.7.06,3.99.56.18.38-.36.75-1.29,1.03h0ZM1211.41,986.04c-1.26.37-2.31.25-2.62-.31-.47-.87.59-2.41,2.45-3.47,1.86-1.05,3.75-1.25,4.22-.38s-.59,2.41-2.45,3.47c-.56.31-1.07.53-1.6.69h0ZM1193.56,985.74c-.93.27-2.15.06-3.24-.71-1.63-1.11-2.36-2.85-1.66-3.92.7-1.07,2.65-1.07,4.25-.03,1.63,1.11,2.36,2.85,1.66,3.92-.25.36-.55.59-.95.71h0l-.07.02ZM1220.23,976.72c-.2.06-.33.1-.57.02-1-.21-1.33-2.06-.69-4.06.64-1.99,2.01-3.48,3.01-3.27,1,.21,1.33,2.06.69,4.06-.52,1.67-1.51,2.97-2.44,3.25h0ZM1203.94,979.06c-1.79.53-3.65-.37-4.12-1.97s.6-3.36,2.4-3.88c1.79-.53,3.65.37,4.12,1.97s-.6,3.36-2.4,3.88h0ZM1180.68,979.78c-.47.14-1.4-.82-2.15-2.4-.93-1.68-1.3-3.44-.94-3.91.37-.47,1.38.53,2.33,2.27.93,1.68,1.3,3.44.94,3.91l-.13.04h0l-.05.09ZM1215.47,968.66c-1.86.55-3.81-.68-4.4-2.68s.39-4.09,2.25-4.64c1.86-.55,3.81.68,4.4,2.68.59,1.99-.45,4.11-2.25,4.64h0ZM1224.68,964.14c-.6.18-1.58-1.2-2.06-3.08-.55-1.86-.38-3.5.22-3.68s1.58,1.2,2.06,3.08c.55,1.86.38,3.5-.22,3.68h0ZM1184.96,975.7c-1.46.43-3.15-.88-3.74-2.87-.59-1.99.12-4.01,1.58-4.44,1.46-.43,3.15.88,3.74,2.87.59,1.99-.12,4.01-1.58,4.44h0ZM1193.97,967.77c-1.99.59-4.06-.54-4.63-2.47s.56-3.99,2.55-4.58c1.99-.59,4.06.54,4.63,2.47.57,1.93-.56,3.99-2.55,4.58h0ZM1205.42,958.83c-1.93.57-3.97-.49-4.52-2.35s.6-3.86,2.52-4.43c1.93-.57,3.97.49,4.52,2.35s-.6,3.86-2.52,4.43h0ZM1179.92,963.24c-.2.06-.33.1-.5,0-.93-.23-1.26-2.08-.69-4.06s1.81-3.42,2.74-3.19c.93.23,1.26,2.08.69,4.06-.45,1.65-1.38,2.93-2.24,3.19h0ZM1214.98,951.54c-.8.24-2.12-.1-3.41-1.02-1.73-1.22-2.68-2.97-2.14-3.85s2.26-.67,4.01.62c1.73,1.22,2.68,2.97,2.14,3.85-.14.26-.32.38-.59.46h0l-.02-.07ZM1195.11,950.31c-2.06.61-4.06.19-4.4-.94s1.05-2.55,3.18-3.18c2.13-.63,4.06-.19,4.4.94s-1.05,2.55-3.18,3.18h0ZM1182.83,948.59c-.27.08-.47.14-.64.04-.5-.21.2-1.29,1.58-2.49,1.38-1.2,2.96-1.96,3.44-1.81.5.21-.2,1.29-1.58,2.49-1.04.88-2.16,1.5-2.82,1.7h0l.02.07ZM1204.59,941.53c-.53.16-1.37.26-2.31.25-1.95,0-3.67-.44-3.91-1.01-.18-.6,1.15-.99,3.1-.99,1.95,0,3.67.44,3.91,1.01.08.27-.2.56-.79.74h0Z"/>
        <g>
          <path class="cls-3" d="M0,5.48h130.53c76.22,0,122.32,45.18,122.32,110.45v.91c0,73.94-57.51,112.28-129.16,112.28h-53.4v95.84H0V5.48ZM125.97,166.59c35.14,0,55.68-20.99,55.68-48.38v-.91c0-31.49-21.91-48.38-57.05-48.38h-54.31v97.67h55.68Z"/>
          <path class="cls-3" d="M342.31,5.48h70.29v319.48h-70.29V5.48Z"/>
          <path class="cls-3" d="M512.55,166.13v-.91C512.55,74.39,581.01,0,679.14,0c60.25,0,96.3,20.08,125.97,49.29l-44.73,51.57c-24.65-22.36-49.75-36.06-81.7-36.06-53.86,0-92.65,44.73-92.65,99.5v.91c0,54.77,37.88,100.41,92.65,100.41,36.51,0,58.88-14.6,83.98-37.42l44.73,45.18c-32.86,35.14-69.37,57.05-130.99,57.05-94.02,0-163.85-72.57-163.85-164.31Z"/>
          <path class="cls-3" d="M897.76,5.48h70.29v139.66L1097.66,5.48h84.89l-130.08,135.55,136.01,183.93h-84.44l-99.04-136.01-36.97,38.34v97.67h-70.29V5.48Z"/>
          <path class="cls-3" d="M1265.17,5.48h70.29v255.59h159.29v63.9h-229.57V5.48Z"/>
          <path class="cls-3" d="M1581.91,5.48h240.98v62.53h-171.15v64.81h150.61v62.53h-150.61v67.09h173.43v62.53h-243.26V5.48Z"/>
          <path class="cls-3" d="M1921.94,5.48h148.33c36.51,0,65.27,10.04,83.52,28.3,14.6,14.6,21.91,32.4,21.91,54.31v.91c0,36.06-19.17,56.14-41.99,68.92,36.97,14.15,59.79,35.6,59.79,78.5v.91c0,58.42-47.47,87.63-119.58,87.63h-151.98V5.48ZM2055.21,134.64c31.04,0,50.66-10.04,50.66-33.77v-.91c0-21-16.43-32.86-46.1-32.86h-69.37v67.55h64.81ZM2073.92,263.35c31.04,0,49.75-10.95,49.75-34.69v-.91c0-21.45-15.97-34.69-52.03-34.69h-81.24v70.29h83.52Z"/>
          <path class="cls-3" d="M2395.23,3.2h64.81l136.92,321.77h-73.48l-29.21-71.66h-135.1l-29.21,71.66h-71.66L2395.23,3.2ZM2469.17,191.23l-42.45-103.6-42.45,103.6h84.89Z"/>
          <path class="cls-3" d="M2680.49,5.48h70.29v255.59h159.29v63.9h-229.57V5.48Z"/>
          <path class="cls-3" d="M2997.23,5.48h70.29v255.59h159.29v63.9h-229.57V5.48Z"/>
        </g>
        <g>
          <path class="cls-3" d="M195.65,484.75h22.18l104.79,246.3,105.18-246.3h21.04l-117.8,269.63h-17.59l-117.8-269.63Z"/>
          <path class="cls-3" d="M635.85,482.84h19.12l124.68,269.63h-21.8l-34.04-74.96h-157.95l-34.04,74.96h-20.65l124.68-269.63ZM715.4,659.54l-70.37-154.9-70.75,154.9h141.13Z"/>
          <path class="cls-3" d="M876.03,619.38v-.76c0-75.73,56.6-138.45,133.86-138.45,47.81,0,76.49,17.59,104.03,42.84l-14.15,14.53c-23.33-22.56-50.1-39.39-90.26-39.39-64.25,0-112.82,52.4-112.82,119.71v.77c0,67.7,49.34,120.47,113.21,120.47,38.63,0,65.02-14.92,92.17-41.69l13.39,13c-28.3,27.92-58.9,46.66-106.32,46.66-76.49,0-133.1-60.81-133.1-137.69Z"/>
          <path class="cls-3" d="M1338.8,482.84h19.12l124.68,269.63h-21.8l-34.04-74.96h-157.95l-34.04,74.96h-20.65l124.68-269.63ZM1418.35,659.54l-70.37-154.9-70.75,154.9h141.13Z"/>
          <path class="cls-3" d="M1889.14,484.75h19.89v267.72h-19.89v-267.72Z"/>
          <path class="cls-3" d="M2046.33,619.38v-.76c0-73.05,53.93-138.45,135.01-138.45s134.24,64.64,134.24,137.68q.38.38,0,.77c0,73.05-53.93,138.45-135.01,138.45s-134.24-64.64-134.24-137.69ZM2294.92,619.38v-.76c0-66.17-48.19-120.48-114.35-120.48s-113.59,53.54-113.59,119.71v.77c0,66.16,48.19,120.47,114.35,120.47s113.59-53.54,113.59-119.71Z"/>
          <path class="cls-3" d="M2450.19,484.75h18.74l184.73,232.92v-232.92h19.12v267.72h-14.92l-188.55-237.89v237.89h-19.12v-267.72Z"/>
          <path class="cls-3" d="M2802.05,713.46l13-14.92c29.45,27.15,56.6,39.78,96,39.78s67.7-22.57,67.7-53.16v-.76c0-28.3-14.92-44.75-75.73-56.99-64.25-13-90.26-34.8-90.26-75.34v-.76c0-39.78,36.33-70.37,86.05-70.37,39.01,0,64.64,10.71,91.79,32.51l-12.62,15.68c-25.24-21.8-50.49-30.21-79.93-30.21-39.39,0-65.4,22.56-65.4,50.48v.77c0,28.3,14.53,45.51,78.02,58.52,61.96,12.62,87.97,34.8,87.97,73.81v.77c0,43.22-37.1,73.05-88.73,73.05-42.84,0-75.73-14.15-107.85-42.83Z"/>
        </g>
        <g>
          <path class="cls-3" d="M1288.71,935.97h18.09c7.27,0,12.8,1.73,16.52,5.37,2.64,2.73,4.13,6.28,4.13,10.74,0,13.46-11.48,21.14-28.5,21.14h-13.71l-5.53,20.57h-6.52l15.53-57.82ZM1299.28,967.44c13.63,0,21.39-5.45,21.39-14.95,0-2.81-.83-5.04-2.64-6.86-2.4-2.4-6.28-3.63-11.48-3.63h-12.97l-6.77,25.44h12.47Z"/>
          <path class="cls-3" d="M1341.73,969.75c0-17.84,14.62-34.77,33.7-34.77,14.95,0,25.36,10.99,25.36,25.03,0,17.92-14.62,34.86-33.7,34.86-14.95,0-25.36-10.99-25.36-25.11ZM1393.93,960.25c0-10.9-7.35-19.24-18.91-19.24-15.12,0-26.43,14.21-26.43,28.58,0,10.9,7.35,19.24,18.91,19.24,15.12,0,26.43-14.21,26.43-28.58Z"/>
          <path class="cls-3" d="M1420.45,935.97h6.77l3.63,48.15,28.66-48.32h5.37l3.06,48.32,29.4-48.15h7.35l-36.26,58.23h-5.7l-3.3-46.67-28.33,46.67h-5.62l-5.04-58.23Z"/>
          <path class="cls-3" d="M1524.18,935.97h41.38l-1.65,5.95h-34.86l-5.29,19.74h31.14l-1.65,5.95h-31.06l-5.45,20.24h35.27l-1.57,5.95h-41.79l15.53-57.82Z"/>
          <path class="cls-3" d="M1586.38,935.97h20.81c7.27,0,12.72,1.82,16.27,5.29,2.48,2.56,3.8,6.03,3.8,9.99,0,5.04-1.9,9.25-5.12,12.55-3.63,3.63-9.42,5.95-16.02,6.86l11.89,23.13h-7.52l-11.4-22.47h-15.69l-6.03,22.47h-6.53l15.53-57.82ZM1600.67,965.46c7.6,0,13.22-2.07,16.44-5.29,2.23-2.31,3.47-5.04,3.47-8.42,0-2.48-.83-4.71-2.39-6.28-2.23-2.23-5.86-3.47-11.32-3.47h-15.53l-6.36,23.46h15.69Z"/>
          <path class="cls-3" d="M1653.86,935.97h41.38l-1.65,5.95h-34.86l-5.29,19.74h31.14l-1.65,5.95h-31.06l-5.45,20.24h35.27l-1.57,5.95h-41.79l15.53-57.82Z"/>
          <path class="cls-3" d="M1716.05,935.97h13.96c9.58,0,17.51,2.73,22.55,7.68,4.13,4.13,6.28,9.58,6.28,16.6,0,8.84-3.22,16.6-9.09,22.55-6.94,6.94-17.35,10.99-29.65,10.99h-19.58l15.53-57.82ZM1720.92,987.76c9.66,0,18.01-3.22,23.87-9.09,4.63-4.62,7.27-10.9,7.27-18.01,0-5.45-1.73-9.75-4.87-12.8-3.8-3.8-9.91-5.86-17.59-5.86h-8.59l-12.31,45.76h12.22Z"/>
          <path class="cls-3" d="M1821.19,935.97h21.64c11.32,0,17.92,5.29,17.92,13.46s-6.28,13.54-14.45,15.2c5.7,1.73,10.24,5.45,10.24,11.98,0,9.99-9.08,17.18-24.28,17.18h-26.6l15.53-57.82ZM1833,987.92c10.41,0,16.93-4.38,16.93-11.56,0-5.86-5.53-8.84-13.3-8.84h-17.51l-5.45,20.4h19.33ZM1837.13,961.74c10.32,0,16.93-4.54,16.93-11.48,0-5.45-4.29-8.42-11.81-8.42h-16.27l-5.29,19.91h16.44Z"/>
          <path class="cls-3" d="M1892.23,970.5l-14.29-34.53h7.27l11.56,29.16,27.26-29.16h8.34l-33.86,35.6-5.95,22.22h-6.61l6.28-23.29Z"/>
        </g>
        <path class="cls-3" d="M1569.13,564.86c2.17-9.61,5.27-18.9,9.38-27.86,3.71-8.1,8.2-15.72,14.05-22.47,9.2-10.63,20.62-16.97,34.77-18.15,11.53-.96,22.74.72,33.79,3.8,3.8,1.06,7.51,2.43,11.27,3.65.25.08.51.14.77.21-.23-.14-.45-.32-.69-.43-10.22-4.68-20.59-9-31.37-12.23-2.1-.63-2.99-1.59-3.26-3.65-.25-1.85-.82-3.67-1.26-5.5-.07-.29-.2-.56-.31-.83-.22.19-.46.36-.65.58-1.6,1.92-3.21,3.83-4.77,5.77-.39.48-.74.61-1.36.5-4.91-.85-9.83-1.67-14.76-2.44-.68-.11-.77-.48-.89-.98-.4-1.76-.81-3.52-1.23-5.27-.06-.25-.18-.48-.28-.72-.19.16-.41.3-.57.49-1.33,1.59-2.69,3.16-3.97,4.79-.48.61-.97.82-1.75.75-10.48-.96-20.99-1.31-31.51-1.25-.88,0-1.76.03-2.65.04-.15,0-.3-.05-.44-.07.1-.13.18-.3.3-.4,2.53-1.86,5.01-3.8,7.62-5.56,8.69-5.86,17.86-10.79,27.82-14.15,7.7-2.6,15.58-4.13,23.76-3.66,7.47.42,14.34,2.76,20.72,6.61,9.74,5.88,17.26,14.06,23.88,23.15.99,1.36,1.91,2.78,2.87,4.17.1.14.26.25.38.37-.06-.17-.09-.36-.18-.52-3.42-6.83-6.95-13.59-11.2-19.95-.62-.92-.56-1.59-.07-2.48.82-1.47,1.55-3,2.3-4.5.08-.16.11-.35.16-.52-.21,0-.43-.05-.64-.02-1.82.31-3.64.6-5.45.96-.57.11-.9-.03-1.26-.46-2.37-2.82-4.78-5.6-7.14-8.42-.2-.24-.26-.77-.14-1.06.54-1.23,1.19-2.41,1.77-3.61.09-.18.08-.41.12-.62-.19,0-.38-.02-.56.01-1.51.27-3.03.53-4.53.83-.63.13-1.03-.06-1.5-.51-3.75-3.57-7.5-7.13-11.33-10.61-2.42-2.19-4.97-4.23-7.46-6.34-.19-.16-.35-.36-.52-.55.25-.04.49-.12.73-.11,6.08.19,12.08.99,18.02,2.3,6.01,1.33,11.84,3.21,17.33,6.03,7.69,3.95,13.88,9.41,17.49,17.45,2.53,5.65,3.72,11.61,4.06,17.75.31,5.49.03,10.96-.66,16.41-.22,1.75-.54,3.48-.81,5.23-.03.17.02.35.03.53.13-.11.29-.2.4-.34,2.12-2.52,4.16-5.14,6.38-7.57,7-7.64,14.83-14.14,24.93-17.32,7.5-2.37,14.93-1.73,22.29.71,8.04,2.67,15.21,6.93,21.8,12.17,3.42,2.72,6.59,5.75,9.87,8.64.16.14.29.33.44.5-.25.02-.51.08-.75.06-5.95-.62-11.89-1.3-17.85-1.86-2.39-.22-4.8-.31-7.2-.38-.76-.02-1.25-.21-1.64-.87-.74-1.25-1.56-2.46-2.36-3.68-.14-.21-.35-.37-.52-.55-.11.23-.25.45-.34.69-.45,1.18-.91,2.36-1.31,3.56-.17.51-.41.7-.97.72-3.64.11-7.29.25-10.93.45-.69.04-1.03-.22-1.36-.74-.95-1.53-1.94-3.04-2.91-4.55-.1-.16-.24-.29-.35-.44-.13.18-.3.33-.38.53-.65,1.72-1.31,3.44-1.91,5.18-.23.65-.56.95-1.27,1.07-7.55,1.24-14.93,3.2-22.27,5.33-.16.05-.3.17-.44.26.18,0,.36.04.53.01,5.92-.97,11.88-1.52,17.89-1.49,8.74.04,17.3,1.16,25.44,4.56,9.1,3.79,15.97,10.2,21.27,18.37,5.75,8.86,9.35,18.62,11.85,28.82,1.65,6.72,2.82,13.53,3.38,20.43.02.3,0,.6,0,.9-.21-.18-.44-.34-.64-.54-5.66-5.83-11.29-11.7-17-17.48-2.26-2.29-4.71-4.4-7.03-6.64-.32-.31-.52-.92-.48-1.37.21-2.18.53-4.34.8-6.51.03-.22,0-.44-.01-.66-.2.07-.43.11-.61.21-1.6.91-3.21,1.8-4.79,2.75-.58.35-.95.32-1.5-.12-3.92-3.09-7.89-6.11-11.81-9.2-.27-.21-.44-.77-.4-1.14.28-2.52.63-5.02.95-7.54.03-.26,0-.53,0-.79-.24.1-.5.18-.73.31-2.17,1.22-4.36,2.42-6.5,3.7-.75.45-1.27.44-2.06-.02-8.98-5.26-18.35-9.74-27.91-13.83-1.41-.6-2.81-1.22-4.22-1.82-.17-.07-.37-.08-.56-.13.13.09.26.21.41.28,8.79,4.39,17.08,9.57,24.6,15.91,7.64,6.44,14.22,13.76,18.47,22.93,3.52,7.6,4.69,15.61,4.19,23.91-.63,10.43-3.56,20.28-7.59,29.86-2.84,6.73-6.25,13.16-10.05,19.39-1.16,1.9-2.43,3.73-3.66,5.59-.11.17-.31.29-.46.44-.06-.21-.15-.41-.16-.62-.53-12.29-1.76-24.51-3.59-36.67-.11-.75.23-1.13.69-1.56,1.7-1.6,3.39-3.22,5.08-4.84.15-.15.27-.33.4-.49-.22-.06-.43-.15-.65-.19-2.04-.35-4.08-.73-6.13-1.03-.61-.09-.79-.35-.93-.92-1.18-5.2-2.37-10.4-3.62-15.59-.17-.7.05-1.08.48-1.49,1.96-1.83,3.92-3.66,5.87-5.51.23-.22.39-.52.58-.78-.29-.07-.58-.15-.88-.2-2.68-.47-5.36-.97-8.05-1.37-.8-.12-1.16-.46-1.43-1.2-5.08-13.69-11.21-31.63-21.81-43.45-8.04,19.28-13.89,39.35-17.44,59.73-7.26,41.48-4.91,84.51,6.85,124.75,4.99,17.11,11.64,33.66,19.79,49.34,1.6,3.09-.62,6.78-4.1,6.83l-23.16.3c-1.96.03-3.73-1.17-4.43-3-29.68-77.29-25.72-166.77,12.13-240.43l-.45-.1c-12.97,2.73-28.56,5.5-39.93,9.77-1.69.63-3.36,1.31-5,2.06-.69.31-1.15.26-1.75-.21-2.13-1.7-4.31-3.34-6.48-5-.25-.19-.57-.31-.85-.47-.04.33-.12.66-.13,1-.04,2.69-.08,5.37-.09,8.06,0,.6-.17.93-.74,1.25-4.64,2.62-9.27,5.27-13.87,7.96-.59.34-.92.27-1.4-.11-1.6-1.26-3.22-2.49-4.85-3.72-.17-.13-.38-.2-.57-.3-.05.21-.13.43-.13.64-.03,2.34-.07,4.68-.06,7.02,0,.72-.21,1.17-.83,1.59-10.12,6.83-19.77,14.27-29.12,22.1-.19.16-.4.29-.61.43,0-.25-.04-.51,0-.74h0Z"/>
        <path class="cls-3" d="M1156.92,972.7c-1.08-6.02-.84-12.43.7-18.47.01-.04.03-.09.04-.13-234.93,1.94-469.83,5.51-704.67,10.94,234.83,5.43,469.72,9,704.65,10.95-.28-1.08-.52-2.18-.72-3.29Z"/>
        <path class="cls-3" d="M2607.02,961.59c-192.89-3.4-385.82-5.9-578.77-7.44,1.23,4.81,1.66,9.86,1.21,14.87l-.02.18c-.23,2.29-.66,4.54-1.23,6.74,192.96-1.55,385.91-4.05,578.81-7.44,47.85-.99,95.71-2.07,143.57-3.46-47.85-1.38-95.71-2.47-143.57-3.46Z"/>
        <path class="cls-3" d="M1993.59,990.53c5.38-1.59,10.24-4.97,13.62-9.43,2.97-3.91,4.8-8.71,5.3-13.63.39-4.31-.26-8.74-1.94-12.72-1.46-3.47-3.62-6.66-6.41-9.24-3.5-3.3-7.94-5.61-12.7-6.59-3.94-.86-8.04-.81-11.93.19-4.51,1.11-8.69,3.36-12.01,6.57-3.61,3.45-6.26,7.91-7.51,12.76-.94,3.67-1.1,7.55-.42,11.32.84,4.81,3.07,9.43,6.38,13.07,3.23,3.6,7.41,6.27,12.03,7.73,3.88,1.17,8.04,1.53,12.1.84,1.17-.2,2.32-.47,3.45-.8h0l.05-.09ZM1989.3,989.7c-.47.14-1,.29-1.63.34-1.96.22-3.7-.06-3.99-.56s1.05-1.1,2.92-1.37c1.96-.22,3.7.06,3.99.56.18.38-.36.75-1.29,1.03h0ZM1997.32,986.04c-1.26.37-2.31.25-2.62-.31-.47-.87.59-2.41,2.45-3.47,1.86-1.05,3.75-1.25,4.22-.38s-.59,2.41-2.45,3.47c-.56.31-1.07.53-1.6.69h0ZM1979.46,985.74c-.93.27-2.15.06-3.24-.71-1.63-1.11-2.36-2.85-1.66-3.92.7-1.07,2.65-1.07,4.25-.03,1.63,1.11,2.36,2.85,1.66,3.92-.25.36-.55.59-.95.71h0l-.07.02ZM2006.13,976.72c-.2.06-.33.1-.57.02-1-.21-1.33-2.06-.69-4.06.64-1.99,2.01-3.48,3.01-3.27s1.33,2.06.69,4.06c-.52,1.67-1.51,2.97-2.44,3.25h0ZM1989.85,979.06c-1.79.53-3.65-.37-4.12-1.97-.47-1.6.6-3.36,2.4-3.88,1.79-.53,3.65.37,4.12,1.97s-.6,3.36-2.4,3.88h0ZM1966.58,979.78c-.47.14-1.4-.82-2.15-2.4-.93-1.68-1.3-3.44-.94-3.91.37-.47,1.38.53,2.33,2.27.93,1.68,1.3,3.44.94,3.91l-.13.04h0l-.05.09ZM2001.37,968.66c-1.86.55-3.81-.68-4.4-2.68s.39-4.09,2.25-4.64c1.86-.55,3.81.68,4.4,2.68.59,1.99-.45,4.11-2.25,4.64h0ZM2010.59,964.14c-.6.18-1.58-1.2-2.06-3.08-.55-1.86-.38-3.5.22-3.68s1.58,1.2,2.06,3.08c.55,1.86.38,3.5-.22,3.68h0ZM1970.87,975.7c-1.46.43-3.15-.88-3.74-2.87s.12-4.01,1.58-4.44c1.46-.43,3.15.88,3.74,2.87s-.12,4.01-1.58,4.44h0ZM1979.87,967.77c-1.99.59-4.06-.54-4.63-2.47s.56-3.99,2.55-4.58c1.99-.59,4.06.54,4.63,2.47.57,1.93-.56,3.99-2.55,4.58h0ZM1991.33,958.83c-1.93.57-3.97-.49-4.52-2.35s.6-3.86,2.52-4.43,3.97.49,4.52,2.35-.6,3.86-2.52,4.43h0ZM1965.82,963.24c-.2.06-.33.1-.5,0-.93-.23-1.26-2.08-.69-4.06s1.81-3.42,2.74-3.19c.93.23,1.26,2.08.69,4.06-.45,1.65-1.38,2.93-2.24,3.19h0ZM2000.88,951.54c-.8.24-2.12-.1-3.41-1.02-1.73-1.22-2.68-2.97-2.14-3.85s2.26-.67,4.01.62c1.73,1.22,2.68,2.97,2.14,3.85-.14.26-.32.38-.59.46h0l-.02-.07ZM1981.01,950.31c-2.06.61-4.06.19-4.4-.94s1.05-2.55,3.18-3.18c2.13-.63,4.06-.19,4.4.94s-1.05,2.55-3.18,3.18h0ZM1968.73,948.59c-.27.08-.47.14-.64.04-.5-.21.2-1.29,1.58-2.49,1.38-1.2,2.96-1.96,3.44-1.81.5.21-.2,1.29-1.58,2.49-1.04.88-2.16,1.5-2.82,1.7h0l.02.07ZM1990.49,941.53c-.53.16-1.37.26-2.31.25-1.95,0-3.67-.44-3.91-1.01-.18-.6,1.15-.99,3.1-.99,1.95,0,3.67.44,3.91,1.01.08.27-.2.56-.79.74h0Z"/>
      </g>
      <g>
        <g id="primary">
          <g class="cls-16">
            <g class="cls-7">
              <path class="cls-12" d="M971.81,1194.23h-.56v-1.16h.75c.09,0,.19,0,.28.03.09,0,.19.03.25.09.06.03.13.09.19.19.06.06.06.16.06.28,0,.16-.03.25-.09.34-.06.06-.13.13-.22.16-.09.03-.22.06-.31.06h-.34ZM971.28,1196.08v-1.5h.69l.94,1.5h.5l-1-1.5c.13-.03.22-.06.31-.09.09-.06.19-.09.28-.19.06-.06.13-.16.19-.28.06-.13.06-.25.06-.37,0-.31-.09-.53-.28-.69-.16-.16-.44-.25-.81-.25h-1.28v3.37h.41ZM971.9,1191.92c.34,0,.66.06.97.19.31.13.56.31.78.53.22.22.37.5.53.78.13.31.19.62.19.97s-.06.69-.19.97c-.13.31-.31.56-.53.78s-.47.41-.78.53c-.31.13-.62.19-.97.19s-.69-.06-1-.19c-.31-.13-.56-.31-.78-.53-.22-.22-.37-.5-.53-.78-.13-.31-.19-.62-.19-.97s.06-.69.19-.97c.13-.31.28-.56.53-.78.22-.22.47-.41.78-.53.31-.13.66-.19,1-.19M971.9,1191.51c-.41,0-.78.06-1.16.22-.34.16-.66.34-.91.62-.25.25-.47.56-.62.91-.16.34-.22.75-.22,1.16s.06.78.22,1.16c.16.34.34.66.62.91.25.25.56.47.91.62.34.16.75.22,1.16.22s.78-.06,1.16-.22c.34-.16.66-.34.94-.62.25-.25.47-.56.59-.91.16-.34.22-.75.22-1.16s-.06-.78-.22-1.16c-.16-.34-.34-.66-.59-.91s-.56-.47-.94-.62c-.37-.16-.75-.22-1.16-.22"/>
              <polygon class="cls-12" points="961.99 1192.04 955.49 1192.04 940.1 1227.44 947.78 1227.44 954.15 1212.56 958.74 1201.82 962.87 1211.76 960.03 1218.32 965.6 1218.32 967.55 1223.02 969.41 1227.44 977.38 1227.44 961.99 1192.04"/>
              <polygon class="cls-12" points="924.93 1213.76 908.3 1192.04 901.66 1192.04 901.64 1227.46 909.08 1227.46 909.08 1205.19 926.26 1227.46 932.37 1227.46 932.37 1192.04 924.93 1192.04 924.93 1213.76"/>
              <polygon class="cls-12" points="872.51 1192.04 857.14 1227.46 864.82 1227.46 871.2 1212.56 871.19 1212.56 875.79 1201.85 879.93 1211.81 877.12 1218.32 882.65 1218.32 884.61 1223.02 886.46 1227.46 894.44 1227.46 879.05 1192.04 872.51 1192.04"/>
              <polygon class="cls-12" points="840.19 1216.39 830.68 1192.06 822.43 1192.06 822.89 1193.18 836.98 1227.45 843.22 1227.45 857.76 1192.06 849.66 1192.06 840.19 1216.39"/>
              <path class="cls-12" d="M811.87,1227.47l-10.73-14.1h-9.49v14.1h-4.23v-35.44h14.84c1.96,0,3.89.32,5.75.94,1.77.63,3.22,1.51,4.33,2.63.87.91,1.55,1.96,2.02,3.12.49,1.23.74,2.53.72,3.86v.08c.02,1.46-.27,2.88-.86,4.22-.57,1.25-1.42,2.37-2.46,3.25-1.09.91-2.31,1.61-3.64,2.1-.69.26-1.4.46-2.12.62l11.21,14.62h-5.35ZM801.71,1209.26h.2c1.31,0,2.61-.18,3.87-.53,1.04-.28,2-.75,2.85-1.4.7-.53,1.27-1.23,1.65-2.02.38-.79.58-1.67.56-2.55v-.1c-.01-2.05-.7-3.53-2.15-4.67-1.52-1.19-3.76-1.79-6.65-1.79h-10.39v13.06h10.05Z"/>
              <polygon class="cls-12" points="776.4 1227.46 772.18 1218.54 767.68 1218.54 769.92 1213.75 762.57 1198.33 748.97 1227.46 744.41 1227.46 761.03 1192.02 764.2 1192.02 780.8 1227.46 776.4 1227.46"/>
              <path class="cls-12" d="M723.71,1227.94c-2.34,0-4.61-.49-6.75-1.45-2.06-.93-3.9-2.23-5.46-3.86-1.56-1.67-2.77-3.6-3.59-5.73-.86-2.24-1.29-4.6-1.28-7v-.09c-.01-2.38.42-4.73,1.28-6.95.82-2.14,2.02-4.09,3.58-5.78,1.56-1.68,3.41-3.01,5.49-3.96,2.15-.98,4.44-1.47,6.8-1.47h.16c.08,0,.16,0,.25,0,1.37,0,2.74.14,4.08.43,1.22.27,2.41.67,3.53,1.19,1.04.49,2.03,1.08,2.95,1.77.86.65,1.69,1.34,2.53,2.12l.99.92-2.97,3.1-.96-.92c-.7-.66-1.37-1.24-2.05-1.76-.7-.55-1.46-1.03-2.27-1.42-.88-.42-1.81-.74-2.76-.97-1.06-.23-2.15-.35-3.24-.35h-.24c-1.75,0-3.45.37-5.04,1.09-1.56.72-2.95,1.72-4.11,2.99-1.21,1.3-2.14,2.8-2.77,4.45-.67,1.75-1.01,3.58-1,5.45v.09c-.01,1.88.32,3.71,1,5.46.63,1.66,1.57,3.16,2.77,4.46,1.18,1.26,2.58,2.27,4.15,2.99,1.58.72,3.26,1.08,5,1.08h.14c2.31,0,4.31-.45,5.94-1.33,1.72-.91,3.27-2.08,4.63-3.47l.95-.9,3.04,2.9-.96.96c-.81.82-1.68,1.59-2.6,2.3-.98.75-2.04,1.39-3.15,1.92-1.18.54-2.41.97-3.67,1.27-1.36.32-2.75.48-4.14.48h-.27Z"/>
              <path class="cls-5" d="M684.47,1209.78c0,22.68-18.38,41.07-41.07,41.07s-41.06-18.38-41.06-41.07,18.38-41.07,41.06-41.07,41.08,18.39,41.08,41.07"/>
              <path class="cls-17" d="M643.46,1185.88c-2.42-.02-4.83.15-7.23.5-1.52.21-2.73.6-3.24.87l.19.09c.74.3,1.5.51,2.28.65,2.01.39,4.85.64,7.99.64,2.41.02,4.83-.15,7.22-.5,1.52-.22,2.73-.62,3.24-.88l-.19-.09c-.73-.29-1.49-.51-2.27-.64-2.01-.39-4.85-.64-7.99-.64M643.46,1190.31c-2.5.02-4.99-.15-7.46-.51-2.07-.35-3.52-.71-4.4-1.48-.15-.13-.28-.3-.36-.48-.09-.18-.13-.38-.14-.59,0-.2.05-.4.14-.58.09-.18.21-.34.36-.47.26-.24.57-.44.9-.58.86-.35,1.75-.61,2.67-.75,2.15-.41,5.08-.66,8.31-.66,2.49-.02,4.98.16,7.45.51,2.06.35,3.51.71,4.41,1.5.16.13.29.29.38.47.09.18.13.38.13.59s-.05.4-.13.58c-.09.18-.22.34-.38.47-.27.23-.56.42-.89.57-.86.35-1.75.61-2.67.76-2.17.41-5.09.66-8.32.66"/>
              <path class="cls-13" d="M662.46,1209.39c-.83-1-2.28-3.44-2.44-3.77l.19-.04s4.66-.25,3.83-1.86c0,0-.91-1.95-4.34-1.95-.15,0-.3,0-.45.02h-.01c-.17-.01-.37.06-.47,1.23-2.83-5.28-4.8-6.37-4.8-6.37-.38-.22-.64-.35-1.6-.55-.97-.19-8.39-.25-9-.25h-.05c-.62,0-8.02.07-9,.25-.98.18-1.24.33-1.6.55,0,0-1.97,1.09-4.8,6.37-.1-1.18-.31-1.24-.48-1.24h0c-.16,0-.31-.01-.46-.01-3.42,0-4.32,1.95-4.32,1.95-.84,1.61,3.82,1.86,3.82,1.86l.21.04c-.72,1.31-1.54,2.57-2.43,3.77-.15.18-1.01,1.19-1.33,1.94-.26.71-.38,1.46-.36,2.21.04,1.24.17,6.62.17,6.62v6.79c0,.4.25.71.57.71h5.35c.32,0,.58-.32.58-.71v-.84h28.23v.84c0,.4.26.71.57.71h5.35c.32,0,.57-.32.57-.71v-6.79s.14-5.39.17-6.62c.04-.75-.09-1.51-.36-2.21-.32-.76-1.18-1.76-1.32-1.94M629.9,1204.19s2.05-4.58,3.67-6.54c0,0,3.02-.14,7.08-.17l-.13.32v.69c0,.06.01.13.04.18.02.06.06.11.1.16.04.04.1.08.16.1s.12.04.18.04h4.7c.06,0,.13,0,.19-.03s.11-.06.16-.1c.05-.04.08-.1.11-.16.02-.06.04-.12.04-.19v-.69l-.13-.32c4.06.04,7.08.17,7.08.17,1.63,1.96,3.67,6.54,3.67,6.54.29.74-.33.74-.33.74h-26.26s-.63,0-.33-.74M624.94,1215.37c-1.03-.26-1.14-.89-1.14-.89-.09-.91.01-1.83.32-2.7.34-.9,1.23-1,1.87-.98.77.02,3.05,1.47,3.05,1.47,1.74.9,1.99,4,1.99,4-2.05-.16-4.08-.46-6.08-.9h0ZM653.75,1216.46c-3.14.26-7.64.28-10.4.28s-7.26-.02-10.39-.28c0,0-.9-1.9.45-1.95.19-.01,4.23-.15,9.93-.16,5.7-.01,9.75.15,9.93.16,1.37.05.47,1.95.47,1.95h0ZM662.91,1214.49s-.11.62-1.14.89c-2.01.43-4.04.73-6.09.91,0,0,.25-3.1,1.99-4,0,0,2.27-1.45,3.03-1.47.66-.02,1.54.08,1.88.98.31.86.43,1.78.33,2.69h0Z"/>
              <path class="cls-12" d="M611.14,1459.42v-139.7c0-1.64.36-3.23.98-4.65-5.42.38-10.05,6.18-10.05,11.65v132.69c0,.34.04.68.12,1h8.83c.07-.32.12-.66.12-1"/>
              <path class="cls-12" d="M624.8,1459.42v-149.2c0-1.64.36-3.23.98-4.65-5.42.38-10.05,6.18-10.05,11.65v142.19c0,.34.04.68.12,1h8.83c.07-.32.12-.66.12-1"/>
              <path class="cls-12" d="M638.45,1459.42v-47.48h40.18c5.39-.43,9.97-6.2,9.97-11.65v-65.46h4.59v65.34c0,1.64-.36,3.23-.98,4.65,5.42-.38,10.05-6.18,10.05-11.65v-58.33h4.59v55.84c0,1.64-.36,3.23-.98,4.65,5.42-.38,10.05-6.18,10.05-11.65v-48.21l-.04-.04c-.62-5.25-6.27-9.65-11.61-9.65h-65.81v-4.59h65.69c1.64,0,3.23.36,4.65.98-.38-5.42-6.18-10.05-11.65-10.05h-58.69v-4.59h56.19c1.64,0,3.23.36,4.65.98-.38-5.42-6.18-10.05-11.65-10.05h-48.21c-5.42.38-10.05,6.18-10.05,11.65v149.32c0,.34.04.68.12,1h8.83c.07-.32.12-.66.12-1M679.54,1407.29c0,.07,0,.14,0,.22v-.34s0,.13,0,.13ZM638.45,1334.83h41.09v40.73h-41.09v-40.73ZM638.45,1384.63h41.09v4.59h-41.09v-4.59ZM638.45,1398.28h41.09v4.59h-41.09v-4.59Z"/>
              <path class="cls-12" d="M734.13,1458.42v-166.39c0-1.96.43-3.84,1.17-5.53-6.46.45-11.96,7.36-11.96,13.88v158.04c0,.71.14,1.38.4,2h10.01c.25-.62.4-1.29.4-2"/>
              <path class="cls-12" d="M750.4,1458.42v-177.7c0-1.96.42-3.84,1.17-5.53-6.46.45-11.96,7.36-11.96,13.88v169.36c0,.71.14,1.38.4,2h10.01c.25-.62.4-1.29.4-2"/>
              <path class="cls-12" d="M766.66,1458.42v-56.56h47.86c6.42-.51,11.88-7.39,11.88-13.88v-77.96h5.46v77.82c0,1.96-.43,3.84-1.17,5.53,6.46-.45,11.96-7.36,11.96-13.88v-69.48h5.46v66.51c0,1.96-.42,3.84-1.17,5.53,6.46-.45,11.96-7.36,11.96-13.88v-57.42l-.05-.05c-.74-6.25-7.47-11.49-13.83-11.49h-78.38v-5.46h78.24c1.96,0,3.84.43,5.53,1.17-.45-6.46-7.36-11.96-13.88-11.96h-69.9v-5.46h66.93c1.96,0,3.84.43,5.53,1.17-.45-6.46-7.36-11.97-13.88-11.97h-57.42c-6.46.45-11.97,7.36-11.97,13.88v177.84c0,.71.14,1.38.4,2h10.01c.25-.62.4-1.29.4-2M815.59,1396.33c0,.09,0,.17,0,.26v-.41s0,.15,0,.15ZM766.66,1310.03h48.94v48.52h-48.94v-48.52ZM766.66,1369.34h48.94v5.46h-48.94v-5.46ZM766.66,1385.6h48.94v5.46h-48.94v-5.46Z"/>
              <path class="cls-12" d="M892.32,1319.86c.62-1.81,1.59-3.42,2.8-4.75-6-1.66-13.17,2.98-15.22,9.02l-45.74,134.72c-.18.53-.25,1.06-.24,1.58h10.58l47.82-140.56Z"/>
              <path class="cls-12" d="M911.03,1311.11c.6-1.82,1.57-3.43,2.77-4.77-6.01-1.62-13.15,3.06-15.16,9.11l-47.52,143.45c-.17.51-.24,1.03-.23,1.53h10.6l49.54-149.31Z"/>
              <path class="cls-12" d="M886.59,1436.46l42.5.05,8.41,23.91h10.93c0-.5-.08-1.02-.26-1.53l-35.7-100.7,2.97-9.39,39.32,111.61h10.85c.02-.55-.06-1.13-.26-1.69l-44.46-123.99,2.91-11.1,47.63,136.78h10.87c.02-.55-.06-1.11-.26-1.66l-53.88-151.76s-.54-2.77-5.24-2.77c-5.43,0-5.8,4.06-5.8,4.06l-17.26,53.08-13.45,41.43-18.77,55.92c-.19.57-.26,1.15-.22,1.71h11l8.18-23.96ZM907.96,1373.88l8.18,23.96-16.36-.02,8.17-23.94ZM896.45,1407.61l23.04.03,1.65,4.82-26.34-.03,1.65-4.82ZM891.61,1422.04l32.75.03,1.66,4.8-36.08-.03,1.67-4.8Z"/>
              <path class="cls-12" d="M602.17,1475.03h11.16c1.56,0,3.03.14,4.41.42,1.39.28,2.59.77,3.63,1.46,1.03.69,1.85,1.63,2.46,2.8.61,1.17.91,2.65.91,4.43s-.28,3.22-.85,4.41c-.57,1.19-1.34,2.13-2.33,2.84-.99.71-2.16,1.21-3.52,1.51-1.36.3-2.83.45-4.41.45h-4.84v11.71h-6.62v-30.04ZM608.79,1487.76h4.41c.59,0,1.17-.06,1.72-.17.55-.11,1.05-.3,1.49-.57.44-.27.79-.64,1.06-1.1.27-.47.4-1.05.4-1.76,0-.76-.18-1.38-.53-1.85-.35-.47-.81-.83-1.36-1.08-.55-.26-1.17-.42-1.84-.49-.68-.07-1.33-.11-1.95-.11h-3.39v7.13Z"/>
              <rect class="cls-12" x="628.81" y="1475.03" width="6.62" height="30.04"/>
              <path class="cls-12" d="M661.1,1482.83c-.65-.79-1.45-1.4-2.4-1.82-.95-.42-2.04-.64-3.29-.64s-2.4.24-3.46.72c-1.06.48-1.98,1.15-2.76,2.02-.78.86-1.39,1.89-1.82,3.08-.44,1.19-.66,2.48-.66,3.86s.22,2.71.66,3.88c.44,1.17,1.04,2.19,1.8,3.05.76.86,1.66,1.53,2.69,2.02,1.03.48,2.14.72,3.33.72,1.36,0,2.56-.28,3.61-.85,1.05-.57,1.91-1.36,2.59-2.38l5.52,4.12c-1.27,1.78-2.89,3.1-4.84,3.94-1.95.85-3.96,1.27-6.02,1.27-2.35,0-4.51-.37-6.49-1.1-1.98-.74-3.69-1.79-5.13-3.16-1.44-1.37-2.57-3.03-3.37-4.98-.81-1.95-1.21-4.13-1.21-6.53s.4-4.58,1.21-6.53c.81-1.95,1.93-3.61,3.37-4.98,1.44-1.37,3.15-2.43,5.13-3.16,1.98-.74,4.14-1.1,6.49-1.1.85,0,1.73.08,2.65.23.92.16,1.82.4,2.72.74.89.34,1.75.79,2.57,1.36.82.57,1.56,1.26,2.21,2.08l-5.09,4.16Z"/>
              <polygon class="cls-12" points="670.77 1475.03 677.39 1475.03 677.39 1487.5 689.05 1475.03 697.71 1475.03 684.34 1488.99 698.85 1505.06 689.61 1505.06 677.39 1490.81 677.39 1505.06 670.77 1505.06 670.77 1475.03"/>
              <polygon class="cls-12" points="701.4 1475.03 708.02 1475.03 708.02 1498.96 720.28 1498.96 720.28 1505.06 701.4 1505.06 701.4 1475.03"/>
              <polygon class="cls-12" points="724.18 1475.03 744.59 1475.03 744.59 1481.14 730.8 1481.14 730.8 1486.74 743.82 1486.74 743.82 1492.85 730.8 1492.85 730.8 1498.96 745.35 1498.96 745.35 1505.06 724.18 1505.06 724.18 1475.03"/>
              <path class="cls-12" d="M750.65,1475.03h11.2c1.3,0,2.61.09,3.92.28,1.32.18,2.5.55,3.54,1.1,1.05.55,1.89,1.32,2.55,2.31.65.99.98,2.31.98,3.95s-.47,3.1-1.42,4.22c-.95,1.12-2.2,1.92-3.75,2.4v.08c.99.14,1.89.42,2.69.83s1.5.93,2.08,1.57c.58.64,1.02,1.38,1.34,2.23.31.85.47,1.75.47,2.72,0,1.58-.34,2.91-1.02,3.97-.68,1.06-1.55,1.92-2.63,2.57s-2.28,1.12-3.63,1.4c-1.34.28-2.68.42-4.01.42h-12.3v-30.04ZM757.27,1487.03h4.79c.51,0,1.01-.06,1.51-.17.49-.11.94-.3,1.34-.55s.71-.59.95-1.02c.24-.42.36-.93.36-1.53s-.13-1.14-.4-1.55c-.27-.41-.62-.73-1.04-.95-.42-.23-.91-.39-1.44-.49-.54-.1-1.06-.15-1.57-.15h-4.5v6.41ZM757.27,1499.46h5.94c.51,0,1.02-.06,1.55-.17.52-.11,1-.31,1.42-.59.42-.28.77-.65,1.04-1.1.27-.45.4-1,.4-1.65,0-.71-.18-1.28-.53-1.72-.35-.44-.8-.77-1.34-1-.54-.23-1.12-.38-1.74-.47-.62-.09-1.2-.13-1.74-.13h-5.01v6.83Z"/>
              <path class="cls-12" d="M788.03,1475.03h5.47l13.07,30.04h-7.47l-2.59-6.36h-11.67l-2.5,6.36h-7.3l12.98-30.04ZM790.57,1483.77l-3.65,9.33h7.34l-3.69-9.33Z"/>
              <polygon class="cls-12" points="809.83 1475.03 816.45 1475.03 816.45 1498.96 828.71 1498.96 828.71 1505.06 809.83 1505.06 809.83 1475.03"/>
              <polygon class="cls-12" points="832.61 1475.03 839.23 1475.03 839.23 1498.96 851.49 1498.96 851.49 1505.06 832.61 1505.06 832.61 1475.03"/>
              <polygon class="cls-12" points="873.51 1480.88 864.94 1480.88 864.94 1475.03 888.7 1475.03 888.7 1480.88 880.13 1480.88 880.13 1505.06 873.51 1505.06 873.51 1480.88"/>
              <path class="cls-12" d="M890.44,1490.05c0-2.4.4-4.58,1.21-6.53.81-1.95,1.93-3.61,3.37-4.98,1.44-1.37,3.15-2.42,5.13-3.16,1.98-.74,4.14-1.1,6.49-1.1s4.51.37,6.49,1.1c1.98.74,3.69,1.79,5.13,3.16,1.44,1.37,2.57,3.03,3.37,4.98.81,1.95,1.21,4.13,1.21,6.53s-.4,4.58-1.21,6.53c-.81,1.95-1.93,3.61-3.37,4.98-1.44,1.37-3.15,2.43-5.13,3.16-1.98.73-4.14,1.1-6.49,1.1s-4.51-.37-6.49-1.1c-1.98-.74-3.69-1.79-5.13-3.16-1.44-1.37-2.57-3.03-3.37-4.98-.81-1.95-1.21-4.13-1.21-6.53M897.31,1490.05c0,1.41.22,2.71.66,3.88.44,1.17,1.07,2.19,1.89,3.05.82.86,1.8,1.53,2.95,2.02,1.15.48,2.43.72,3.84.72s2.69-.24,3.84-.72c1.15-.48,2.13-1.15,2.95-2.02.82-.86,1.45-1.88,1.89-3.05.44-1.17.66-2.47.66-3.88s-.22-2.67-.66-3.86c-.44-1.19-1.07-2.21-1.89-3.08-.82-.86-1.8-1.53-2.95-2.02-1.15-.48-2.42-.72-3.84-.72s-2.69.24-3.84.72c-1.14.48-2.13,1.15-2.95,2.02-.82.86-1.45,1.89-1.89,3.08-.44,1.19-.66,2.48-.66,3.86"/>
              <path class="cls-12" d="M952.67,1493.48c0,1.78-.27,3.42-.81,4.92-.54,1.5-1.34,2.8-2.4,3.9-1.06,1.1-2.38,1.97-3.97,2.59-1.59.62-3.41.93-5.47.93s-3.93-.31-5.52-.93c-1.58-.62-2.91-1.48-3.97-2.59-1.06-1.1-1.86-2.4-2.4-3.9-.54-1.5-.81-3.14-.81-4.92v-18.45h6.62v18.2c0,.93.15,1.8.45,2.59.3.79.71,1.48,1.25,2.06.54.58,1.18,1.03,1.93,1.36.75.33,1.56.49,2.44.49s1.68-.16,2.42-.49c.73-.32,1.37-.78,1.91-1.36.54-.58.95-1.27,1.25-2.06.3-.79.45-1.66.45-2.59v-18.2h6.62v18.45Z"/>
              <path class="cls-12" d="M958.78,1475.03h11.62c1.53,0,2.98.15,4.35.45,1.37.3,2.57.79,3.61,1.49,1.03.69,1.85,1.63,2.46,2.8.61,1.17.91,2.64.91,4.39,0,2.12-.55,3.92-1.65,5.41-1.1,1.48-2.72,2.42-4.84,2.82l7.64,12.69h-7.93l-6.28-12.01h-3.27v12.01h-6.62v-30.04ZM965.4,1487.46h3.9c.59,0,1.22-.02,1.89-.06.66-.04,1.27-.17,1.8-.38.54-.21.98-.54,1.34-1,.35-.45.53-1.09.53-1.91,0-.76-.16-1.37-.47-1.82-.31-.45-.71-.8-1.19-1.04-.48-.24-1.03-.4-1.65-.49-.62-.09-1.23-.13-1.82-.13h-4.33v6.83Z"/>
            </g>
          </g>
        </g>
        <g id="Artwork_108" data-name="Artwork 108">
          <g class="cls-10">
            <g class="cls-8">
              <path class="cls-13" d="M1737.9,1275.82c0,30.41-24.65,55.06-55.06,55.06s-55.06-24.65-55.06-55.06,24.65-55.06,55.06-55.06,55.06,24.65,55.06,55.06"/>
              <path class="cls-15" d="M1567.29,1199.68h-49.68l-24.36,112.69c-3.24,14.66,7.99,28.55,23.03,28.55h57.11l9.52-48.73h-34.83l19.23-92.51Z"/>
              <path class="cls-15" d="M1475.92,1199.68h-22.65v.38c-8.18,1.33-15.42,6.47-19.04,14.28l-23.79,50.06,1.52-64.72h-49.49c-10.66,0-19.99,7.42-22.08,17.89l-26.08,123.35h49.49l12.75-48.73-2.67,48.73h37.69l21.51-48.73-9.52,48.73h50.06l29.89-141.24h-27.6Z"/>
              <path class="cls-14" d="M1680.93,1291.05c-3.24.95-5.52,3.43-4.95,5.52.57,2.09,3.81,3.05,7.04,2.09,3.43-.76,5.52-3.24,4.95-5.52-.57-2.09-3.81-3.05-7.04-2.09"/>
              <path class="cls-14" d="M1653.33,1279.06c-1.71,1.33-1.33,4.57.95,7.23,2.28,2.67,5.33,3.62,7.04,2.28,1.52-1.52,1.14-4.76-.95-7.23-2.28-2.66-5.33-3.62-7.04-2.28"/>
              <path class="cls-14" d="M1681.88,1244.8c3.43.19,6.28-1.52,6.47-3.62,0-2.09-2.67-4-6.09-4.19-3.43-.19-6.28,1.33-6.47,3.62,0,2.09,2.66,4,6.09,4.19"/>
              <path class="cls-14" d="M1654.66,1261.74c2.28.76,4.95-1.52,5.9-4.76.95-3.43-.19-6.47-2.47-7.23-2.28-.76-4.95,1.52-5.9,4.76-.95,3.24.19,6.47,2.47,7.23"/>
            </g>
            <g class="cls-9">
              <path class="cls-14" d="M1703.77,1251.65c-2.28.76-3.43,4-2.47,7.23.95,3.24,3.62,5.33,5.9,4.76,2.28-.76,3.43-4,2.47-7.23-.95-3.24-3.62-5.33-5.9-4.76"/>
              <path class="cls-14" d="M1680.93,1302.85c-19.23,0-34.83-15.61-34.83-34.83s15.61-34.83,34.83-34.83,34.83,15.42,34.83,34.83-15.61,34.83-34.83,34.83M1693.49,1199.68h-70.24l-40.16,185.02h28.55c13.32,0,22.65-8.76,26.46-21.7l4.76-22.27h27.79c36.36,0,75-21.51,82.8-66.62,8.76-51.01-25.32-75.38-59.96-74.43"/>
            </g>
            <g class="cls-11">
              <path class="cls-14" d="M1707.39,1276.59c-1.9-1.52-5.14-.38-7.23,2.28-2.09,2.67-2.09,6.09-.19,7.61,1.9,1.52,5.14.38,7.23-2.28,2.09-2.86,2.09-6.28.19-7.61"/>
              <path class="cls-14" d="M1682.83,1260.98c-4.19,0-7.42,3.43-7.42,7.42s3.43,7.42,7.42,7.42,7.42-3.24,7.42-7.42-3.43-7.42-7.42-7.42"/>
              <path class="cls-15" d="M1311.06,1364.16h8.91c1.82,0,3.22.48,4.21,1.44.99.96,1.48,2.2,1.48,3.71,0,.5-.06,1.03-.18,1.58-.44,2.08-1.34,3.71-2.68,4.89-1.34,1.18-3.14,1.77-5.38,1.77h-5.12l-1.27,6.12h-4.09l4.12-19.51ZM1317.08,1374.31c2.38,0,3.81-1.14,4.27-3.42.12-.53.18-.98.18-1.36,0-.71-.22-1.24-.67-1.59-.44-.35-1.16-.53-2.15-.53h-4.24l-1.48,6.91h4.09Z"/>
              <path class="cls-15" d="M1332.2,1364.16h9.36c1.72,0,3.03.42,3.95,1.26.92.84,1.38,1.99,1.38,3.47,0,.63-.07,1.23-.21,1.82-.28,1.33-.86,2.48-1.73,3.45-.87.97-1.97,1.64-3.3,2,.24.26.43.55.58.85.14.3.26.71.36,1.21l1.21,5.45h-4.24l-1.21-5.24c-.12-.46-.28-.78-.49-.95-.2-.17-.58-.26-1.12-.26h-3.21l-1.36,6.45h-4.09l4.12-19.51ZM1338.47,1373.82c1.13,0,2.03-.25,2.71-.74.68-.5,1.13-1.29,1.35-2.38.1-.4.15-.83.15-1.27,0-.67-.2-1.15-.61-1.44-.4-.29-1.08-.44-2.03-.44h-4.45l-1.33,6.27h4.21Z"/>
              <polygon class="cls-15" points="1353.95 1364.16 1367.95 1364.16 1367.29 1367.34 1357.38 1367.34 1356.32 1372.34 1365.1 1372.34 1364.44 1375.49 1355.65 1375.49 1354.59 1380.52 1364.5 1380.52 1363.83 1383.67 1349.83 1383.67 1353.95 1364.16"/>
              <path class="cls-15" d="M1369.62,1382.91l.76-3.61c.83.36,1.74.66,2.73.88.99.22,1.97.33,2.94.33,1.51,0,2.61-.14,3.29-.42.68-.28,1.11-.87,1.29-1.76.04-.14.06-.34.06-.61,0-.42-.13-.77-.39-1.05-.26-.27-.68-.52-1.26-.74-.58-.22-1.43-.5-2.56-.85-1.6-.46-2.75-1.02-3.45-1.68-.71-.66-1.06-1.5-1.06-2.53,0-.52.05-1,.15-1.42.38-1.84,1.29-3.23,2.73-4.18,1.43-.95,3.49-1.42,6.18-1.42,1.11,0,2.16.08,3.15.23.99.15,1.79.35,2.39.59l-.79,3.61c-1.5-.63-3.15-.94-4.97-.94-1.39,0-2.46.15-3.2.45-.74.3-1.19.86-1.35,1.67-.04.24-.06.41-.06.51,0,.36.12.67.36.92.24.25.63.48,1.17.68.54.2,1.32.44,2.35.73,1.78.48,3.03,1.1,3.77,1.85.74.75,1.11,1.66,1.11,2.73,0,.4-.05.89-.15,1.45-.38,1.84-1.27,3.24-2.65,4.2-1.38.96-3.54,1.44-6.47,1.44-2.59,0-4.61-.35-6.06-1.06"/>
              <polygon class="cls-15" points="1393.67 1364.16 1407.67 1364.16 1407 1367.34 1397.1 1367.34 1396.04 1372.34 1404.82 1372.34 1404.16 1375.49 1395.37 1375.49 1394.31 1380.52 1404.22 1380.52 1403.55 1383.67 1389.55 1383.67 1393.67 1364.16"/>
              <polygon class="cls-15" points="1413.55 1364.16 1417.09 1364.16 1423.58 1377.16 1426.33 1364.16 1430.42 1364.16 1426.3 1383.67 1422.76 1383.67 1416.27 1370.67 1413.52 1383.67 1409.43 1383.67 1413.55 1364.16"/>
              <polygon class="cls-15" points="1441.03 1367.31 1435.03 1367.31 1435.69 1364.16 1451.75 1364.16 1451.08 1367.31 1445.12 1367.31 1441.66 1383.67 1437.57 1383.67 1441.03 1367.31"/>
              <polygon class="cls-15" points="1457.02 1364.16 1471.02 1364.16 1470.35 1367.34 1460.45 1367.34 1459.39 1372.34 1468.17 1372.34 1467.51 1375.49 1458.72 1375.49 1457.66 1380.52 1467.57 1380.52 1466.9 1383.67 1452.9 1383.67 1457.02 1364.16"/>
              <path class="cls-15" d="M1476.9,1364.16h8.18c2.28,0,4.04.57,5.27,1.7,1.23,1.13,1.85,2.81,1.85,5.03,0,.93-.12,1.97-.36,3.12-.71,3.35-1.92,5.8-3.64,7.35-1.72,1.55-4.13,2.32-7.24,2.32h-8.18l4.12-19.51ZM1481.05,1380.52c1.15,0,2.15-.18,2.98-.55.84-.36,1.56-1.02,2.18-1.97.62-.95,1.11-2.28,1.47-4,.28-1.37.42-2.46.42-3.27,0-1.21-.32-2.04-.97-2.5-.65-.45-1.73-.68-3.24-.68h-3.61l-2.76,12.97h3.51Z"/>
              <path class="cls-15" d="M1513.74,1364.16h9.88c1.55,0,2.75.35,3.59,1.06.84.71,1.26,1.68,1.26,2.91,0,.36-.05.8-.15,1.3-.44,2-1.48,3.41-3.12,4.24,1.45.48,2.18,1.5,2.18,3.03,0,.34-.05.77-.15,1.27-.42,1.9-1.23,3.32-2.42,4.27-1.19.95-2.84,1.42-4.94,1.42h-10.24l4.12-19.51ZM1519.52,1380.67c1.05,0,1.86-.22,2.42-.65.57-.43.96-1.18,1.18-2.23.06-.3.09-.58.09-.82,0-.61-.22-1.05-.67-1.33-.44-.28-1.16-.42-2.15-.42h-4.91l-1.15,5.45h5.18ZM1521.16,1372.25c.95,0,1.69-.21,2.21-.64.52-.42.88-1.04,1.06-1.85.06-.3.09-.59.09-.85,0-.59-.2-1.02-.61-1.3-.4-.28-1.07-.42-2-.42h-4.73l-1.06,5.06h5.03Z"/>
              <polygon class="cls-15" points="1537.4 1376.46 1533.01 1364.16 1537.16 1364.16 1540.1 1372.98 1546.73 1364.16 1551.09 1364.16 1541.49 1376.46 1539.97 1383.67 1535.88 1383.67 1537.4 1376.46"/>
              <path class="cls-4" d="M1393.35,1422.01c12.88,0,22.61,9.74,22.61,21.99s-9.74,21.98-22.61,21.98h-15.19c-.6,0-1.09-.49-1.09-1.09v-41.74c0-.6.49-1.09,1.09-1.09l15.19-.04ZM1386.44,1430.49v27.01h6.91c7.36-.08,13.27-6.11,13.19-13.48v-.02c.22-7.24-5.48-13.29-12.72-13.5-.16,0-.32,0-.48,0h-6.91Z"/>
              <path class="cls-4" d="M1449.2,1421.07c13.5,0,23.87,10.36,23.87,22.95s-10.37,22.95-23.87,22.95-23.87-10.36-23.87-22.95,10.36-22.95,23.87-22.95M1449.2,1458.45c7.98,0,14.45-6.47,14.45-14.45s-6.47-14.45-14.45-14.45-14.45,6.47-14.45,14.45c.01,7.97,6.47,14.44,14.45,14.45"/>
              <path class="cls-4" d="M1505.95,1421.07c13.51,0,23.87,10.36,23.87,22.95s-10.36,22.95-23.87,22.95-23.87-10.36-23.87-22.95,10.36-22.95,23.87-22.95M1505.95,1458.45c7.98,0,14.46-6.46,14.46-14.44,0-7.98-6.46-14.45-14.44-14.46-7.98,0-14.46,6.46-14.46,14.44h0c.01,7.98,6.47,14.44,14.44,14.46"/>
              <path class="cls-4" d="M1542.3,1423.14c0-.6.49-1.09,1.09-1.09h18.33c8.74,0,15.08,6.41,15.08,14.45.06,5.44-2.99,10.44-7.86,12.88l8.49,14.91c.33.5.2,1.18-.31,1.51-.2.13-.44.2-.68.18h-7.43c-.42,0-.8-.22-.99-.59l-8.14-14.8h-8.17v14.21c0,.6-.49,1.09-1.09,1.09h-7.15c-.6,0-1.09-.49-1.09-1.09l-.09-41.66ZM1561.47,1430.49h-9.74v11.62h9.74c3.15.15,5.82-2.29,5.96-5.44,0-.07,0-.14,0-.21.11-3.19-2.4-5.86-5.59-5.97-.13,0-.25,0-.38,0"/>
              <path class="cls-4" d="M1608.28,1422.21c12.88,0,22.62,9.73,22.62,21.98s-9.73,21.99-22.62,21.99h-15.19c-.6,0-1.09-.49-1.09-1.09v-41.74c0-.6.49-1.09,1.09-1.09l15.19-.04ZM1601.37,1430.68v27.02h6.91c7.37-.08,13.28-6.13,13.19-13.5h0c.22-7.25-5.48-13.3-12.72-13.52-.16,0-.32,0-.48,0h-6.91Z"/>
              <path class="cls-4" d="M1651.14,1455.56l-3.5,9.62c-.15.47-.6.78-1.09.75h-7.58c-.6.06-1.14-.38-1.2-.98-.02-.2.02-.4.1-.58l16.4-41.69c.16-.46.61-.76,1.09-.73h8.49c.49-.03.93.27,1.09.73l16.4,41.69c.26.54.03,1.2-.51,1.46-.18.09-.38.12-.58.1h-7.58c-.49.02-.94-.28-1.09-.75l-3.5-9.62h-16.93ZM1659.62,1432.95l-5.33,14.45h10.68l-5.35-14.45Z"/>
              <path class="cls-4" d="M1690.15,1433.87c0-6.91,5.96-12.88,15.39-12.88,5.06-.1,9.97,1.77,13.67,5.22.44.45.44,1.16,0,1.61l-4.24,4.23c-.41.44-1.1.47-1.54.06,0,0,0,0,0,0-2-1.81-4.59-2.84-7.29-2.87-3.77,0-6.56,2.19-6.56,4.71,0,8.18,22.28,3.47,22.28,19.16,0,7.86-5.97,13.83-16.65,13.83-5.94.07-11.66-2.23-15.89-6.39-.44-.41-.46-1.11-.05-1.55.02-.02.03-.03.05-.05l4.07-4.07c.42-.44,1.11-.46,1.55-.04.01.01.03.03.04.04,2.58,2.48,6.01,3.88,9.6,3.91,4.72,0,7.83-2.51,7.83-5.66,0-8.16-22.27-3.45-22.27-19.16"/>
              <path class="cls-4" d="M1762.27,1423.1v16.45h-18.84v-16.4c.03-.6-.43-1.12-1.04-1.15-.02,0-.04,0-.06,0h-7.15c-.6,0-1.09.49-1.09,1.09,0,.02,0,.04,0,.06v41.63c-.03.6.43,1.12,1.04,1.15.02,0,.04,0,.06,0h7.15c.6,0,1.09-.49,1.1-1.09,0-.02,0-.04,0-.06v-16.71h18.84v16.71c-.03.6.43,1.12,1.04,1.15.04,0,.07,0,.11,0h7.14c.6.03,1.12-.43,1.15-1.04,0-.04,0-.07,0-.11v-41.69c.03-.6-.43-1.12-1.03-1.15-.04,0-.07,0-.11,0h-7.14c-.6-.03-1.12.43-1.15,1.04,0,.04,0,.07,0,.11"/>
              <path class="cls-4" d="M1339.86,1427.72c-4.81-9.03-14.22-14.66-24.45-14.62h-77.43c-1.47.01-2.66,1.22-2.64,2.69,0,.7.28,1.36.78,1.86l16.87,16.96c1.48,1.5,3.51,2.35,5.62,2.35h54.6c3.89-.04,7.07,3.08,7.12,6.96.04,3.89-3.08,7.07-6.96,7.12h-37.64c-1.47.01-2.66,1.22-2.64,2.69,0,.7.28,1.36.78,1.86l16.87,16.96c1.49,1.5,3.52,2.34,5.63,2.34h17.02c22.13,0,38.88-23.68,26.52-47.17"/>
            </g>
          </g>
        </g>
        <g>
          <rect class="cls-2" x="2600.15" y="1211.3" width="24.58" height="112.09"/>
          <rect class="cls-2" x="2567.5" y="1211.3" width="24.58" height="112.09"/>
          <path class="cls-2" d="M2534.95,1254.11v6.89c-2.25-2.7-5.07-4.79-8.44-6.28-3.38-1.49-6.82-2.36-10.33-2.63-.45-.09-.9-.14-1.35-.14h-1.35c-10.26,0-18.62,3.67-25.05,11.01-6.44,7.34-9.66,15.96-9.66,25.86s3.27,18.53,9.79,25.86c6.53,7.34,14.92,11.01,25.19,11.01h1.08c.36,0,.72-.05,1.08-.14,3.69-.18,7.25-1.06,10.67-2.63,3.42-1.58,6.12-3.98,8.1-7.23h.27v7.7h24.58v-69.28h-24.58ZM2531.65,1300.01c-2.75,2.99-6.64,4.48-11.68,4.48s-8.82-1.49-11.61-4.46c-2.79-2.97-4.19-6.66-4.19-11.08s1.39-7.9,4.19-11.01c2.79-3.11,6.66-4.7,11.61-4.79,5.04,0,8.94,1.55,11.68,4.68,2.75,3.11,4.12,6.8,4.12,11.05s-1.37,8.15-4.12,11.12Z"/>
          <path class="cls-2" d="M2464.95,1262.96c-6.44-7.34-14.79-11.01-25.05-11.01h-2.03c-3.6.27-7.14,1.15-10.6,2.63-3.47,1.49-6.42,3.58-8.85,6.28v-49.56h-24.58v112.09h24.58v-7.7l.27.14c2.07,3.24,4.86,5.65,8.37,7.22,3.51,1.58,7.16,2.45,10.94,2.64h1.62c10.35,0,18.77-3.65,25.25-10.94,6.48-7.29,9.72-15.94,9.72-25.93s-3.22-18.52-9.66-25.86ZM2445.09,1300.01c-2.75,2.99-6.64,4.48-11.68,4.48s-8.82-1.49-11.61-4.46c-2.79-2.97-4.19-6.66-4.19-11.08s1.4-7.9,4.19-11.01c2.79-3.11,6.66-4.7,11.61-4.79,5.04,0,8.94,1.55,11.68,4.68,2.75,3.11,4.12,6.8,4.12,11.05s-1.37,8.15-4.12,11.12Z"/>
          <path class="cls-2" d="M2351.8,1251.95c-11.25,0-20.46,3.29-27.62,9.86-7.16,6.57-10.74,15.62-10.74,27.14s3.83,21.09,11.48,27.35c7.65,6.26,17.2,9.39,28.63,9.39,7.92,0,15.28-1.89,22.08-5.65,6.8-3.76,11.19-9.75,13.17-17.98h-23.63c-1.35,2.25-2.99,3.87-4.93,4.86-1.94.99-4.21,1.48-6.82,1.48-5.04,0-8.87-1.33-11.48-3.98-2.61-2.66-3.92-6.5-3.92-11.55h51.72v-2.43c0-11.79-3.31-21.16-9.93-28.09-6.62-6.93-15.96-10.4-28.02-10.4ZM2338.43,1278.69c.72-3.56,2.43-6.26,5.13-8.08,2.7-1.82,5.85-2.72,9.45-2.72,3.33,0,6.33.99,8.98,2.97,2.66,1.98,4.3,4.59,4.93,7.83h-28.5Z"/>
          <rect class="cls-2" x="2284.1" y="1211.3" width="24.58" height="112.09"/>
          <polygon class="cls-2" points="2222.07 1211.3 2222.07 1279.1 2247.6 1254.11 2281.23 1254.11 2246.52 1286.12 2283.39 1323.39 2248.95 1323.39 2222.07 1295.17 2222.07 1323.39 2197.49 1323.39 2197.49 1211.3 2222.07 1211.3"/>
          <path class="cls-2" d="M2191.03,1255.87v20.8c-1.8-1.26-3.78-2.36-5.94-3.31-2.16-.94-4.41-1.42-6.75-1.42-4.68,0-8.67,1.62-11.95,4.86-3.29,3.24-4.93,7.25-4.93,12.02s1.62,9.03,4.86,12.22c3.24,3.2,7.38,4.79,12.42,4.79.45,0,.92-.02,1.42-.07.49-.05.97-.11,1.42-.2,1.71-.27,3.4-.79,5.07-1.55,1.66-.77,3.13-1.73,4.39-2.9v20.66c-2.7,1.35-5.51,2.34-8.44,2.97-2.93.63-5.88.95-8.85.95-10.26,0-19.11-3.4-26.54-10.2-7.43-6.8-11.14-15.42-11.14-25.86,0-11.16,3.74-20.24,11.21-27.21,7.47-6.98,16.66-10.47,27.55-10.47,2.88,0,5.7.34,8.44,1.01,2.74.68,5.33,1.69,7.76,3.04v-.14Z"/>
          <path class="cls-2" d="M2118.87,1213.73c3.78.09,7.02,1.49,9.72,4.19,2.7,2.7,4.05,5.94,4.05,9.72s-1.35,7.02-4.05,9.72c-2.7,2.7-5.94,4.05-9.72,4.05s-7.02-1.35-9.72-4.05c-2.7-2.7-4.05-5.94-4.05-9.72s1.35-7.09,4.05-9.81c2.7-2.72,5.94-4.1,9.72-4.1"/>
          <rect class="cls-2" x="2106.58" y="1254.11" width="24.58" height="69.28"/>
          <path class="cls-2" d="M2091.42,1229.67c-6.84-5.31-15.76-8.01-26.74-8.1h-40.52v101.83h26.47v-33.63h14.99c11.52,0,20.42-2.77,26.67-8.31,6.26-5.54,9.39-14.29,9.39-26.27s-3.42-20.21-10.26-25.52ZM2068.19,1266.88c-3.96,1.04-8.33,1.51-13.1,1.42h-4.46v-25.39h4.46c5.13,0,9.59.56,13.37,1.71,3.78,1.12,5.67,4.93,5.67,11.39s-1.98,9.84-5.94,10.87Z"/>
          <rect class="cls-2" x="2599.84" y="1338.18" width="24.58" height="114.87"/>
          <g>
            <path class="cls-2" d="M2566.9,1382.05v7.06c-2.31-2.77-5.19-4.91-8.65-6.43-3.46-1.52-6.99-2.42-10.59-2.7-.46-.09-.92-.14-1.38-.14h-1.38c-10.52,0-19.07,3.76-25.67,11.28-6.6,7.52-9.89,16.35-9.89,26.5s3.34,18.98,10.03,26.5c6.69,7.52,15.29,11.28,25.81,11.28h1.11c.37,0,.74-.05,1.11-.14,3.78-.18,7.43-1.08,10.93-2.7,3.51-1.61,6.27-4.08,8.3-7.41h.28v7.89h25.19v-71h-25.19ZM2563.5,1429.08c-2.81,3.07-6.8,4.59-11.97,4.59s-9.04-1.52-11.9-4.57c-2.86-3.04-4.29-6.83-4.29-11.35s1.43-8.1,4.29-11.28c2.86-3.18,6.83-4.82,11.9-4.91,5.17,0,9.16,1.59,11.97,4.8,2.81,3.18,4.22,6.96,4.22,11.32s-1.41,8.35-4.22,11.39Z"/>
            <path class="cls-2" d="M2483.4,1382.05v11.62h.28c2.4-4.24,5.61-7.38,9.62-9.41,4.01-2.03,8.46-3.05,13.35-3.05l4.84-.14v24.22c-.37-.09-.72-.23-1.04-.42-.32-.18-.67-.32-1.04-.42-1.38-.55-2.77-.92-4.15-1.11-1.38-.18-2.86-.28-4.43-.28-7.01,0-11.67,2.05-13.98,6.16-2.31,4.11-3.46,9.2-3.46,15.29v28.51h-25.19v-71h25.19Z"/>
            <polygon class="cls-2" points="2439.59 1402.81 2439.59 1453.05 2414.4 1453.05 2414.4 1402.81 2406.24 1402.81 2406.24 1382.05 2414.4 1382.05 2414.4 1360.74 2439.59 1360.74 2439.59 1382.05 2453.84 1382.05 2453.84 1402.81 2439.59 1402.81"/>
            <path class="cls-2" d="M2352.22,1382.05v9.13h.28c2.95-4.24,6.25-7.2,9.89-8.86,3.64-1.66,7.91-2.49,12.8-2.49,9.59,0,16.45,2.72,20.55,8.16,4.11,5.44,6.16,12.55,6.16,21.31v43.73h-25.19v-38.75c0-.92-.05-1.84-.14-2.77-.18-2.86-1.02-5.51-2.49-7.96-1.48-2.44-4.38-3.67-8.72-3.67-5.08,0-8.54,1.64-10.38,4.91-1.85,3.28-2.77,7.13-2.77,11.56v36.68h-25.19v-71h25.19Z"/>
            <path class="cls-2" d="M2283.12,1379.84c-11.53,0-20.97,3.37-28.3,10.1-7.33,6.74-11,16.01-11,27.82s3.92,21.61,11.76,28.02c7.84,6.41,17.62,9.62,29.34,9.62,8.12,0,15.66-1.94,22.63-5.79,6.96-3.85,11.46-9.99,13.49-18.43h-24.22c-1.38,2.31-3.07,3.97-5.05,4.98-1.98,1.01-4.31,1.52-6.99,1.52-5.17,0-9.09-1.36-11.76-4.08-2.68-2.72-4.01-6.67-4.01-11.83h53.01v-2.49c0-12.09-3.39-21.68-10.17-28.79-6.78-7.1-16.35-10.66-28.72-10.66ZM2269.42,1407.24c.74-3.64,2.49-6.41,5.26-8.28,2.77-1.87,6-2.79,9.69-2.79,3.41,0,6.48,1.02,9.2,3.05,2.72,2.03,4.4,4.7,5.05,8.03h-29.2Z"/>
            <path class="cls-2" d="M2239.35,1351.19v32.52c-2.77-3.69-6.27-6.51-10.52-8.44-4.24-1.94-8.67-2.91-13.29-2.91-8.3,0-15.02,2.79-20.14,8.37-5.12,5.58-7.68,12.43-7.68,20.55s2.61,14.99,7.82,20.34c5.21,5.35,12.02,8.03,20.41,8.03,4.43,0,8.72-.99,12.87-2.97,4.15-1.98,7.66-4.68,10.52-8.1v32.38c-2.49.83-4.84,1.54-7.06,2.15-2.21.6-4.38,1.13-6.5,1.59-1.66.37-3.34.65-5.05.83-1.71.18-3.48.28-5.33.28-7.29,0-14.28-1.31-20.97-3.94-6.69-2.63-12.76-6.39-18.2-11.28-5.72-5.17-9.94-11.09-12.66-17.78-2.72-6.69-4.08-13.91-4.08-21.66,0-7.1,1.31-13.98,3.94-20.62,2.63-6.64,6.43-12.5,11.42-17.58,4.98-5.07,10.84-9.11,17.57-12.11,6.74-3,13.7-4.59,20.9-4.78h1.25c4.34,0,8.56.46,12.66,1.38,4.11.92,8.14,2.21,12.11,3.88v-.14Z"/>
            <path class="cls-6" d="M2042.23,1368.83c-2.87,4.15-3.97,7.8-2.44,8.15,1.53.35,5.09-2.74,7.97-6.89,2.87-4.15,3.97-7.8,2.44-8.15-1.52-.35-5.09,2.74-7.96,6.89M2032.38,1411.18c.9,4.97,2.71,8.32,4.04,7.49,1.32-.83,1.66-5.53.76-10.5-.9-4.97-2.71-8.32-4.04-7.48-1.32.83-1.66,5.53-.76,10.5M2055.35,1448.1c4.15,2.87,7.8,3.97,8.15,2.44.35-1.53-2.74-5.09-6.89-7.97-4.15-2.87-7.8-3.97-8.15-2.44-.35,1.52,2.74,5.09,6.89,7.96M2097.71,1457.96c4.97-.91,8.32-2.71,7.49-4.03-.83-1.33-5.53-1.66-10.5-.76-4.97.9-8.32,2.71-7.49,4.04.83,1.32,5.53,1.66,10.5.76M2134.63,1434.99c2.87-4.15,3.97-7.8,2.44-8.15-1.53-.35-5.09,2.74-7.97,6.89-2.87,4.15-3.97,7.8-2.44,8.15,1.52.35,5.09-2.74,7.96-6.89M2144.49,1392.63c-.91-4.97-2.71-8.32-4.04-7.49-1.33.83-1.66,5.53-.76,10.5.91,4.97,2.71,8.32,4.04,7.48,1.32-.83,1.66-5.53.76-10.5M2121.51,1355.71c-4.15-2.87-7.8-3.97-8.14-2.44-.35,1.53,2.74,5.09,6.89,7.97,4.15,2.87,7.8,3.97,8.15,2.44.35-1.52-2.74-5.09-6.89-7.96M2079.15,1345.85c-4.97.9-8.32,2.71-7.48,4.03.83,1.33,5.53,1.66,10.5.76,4.97-.9,8.32-2.71,7.49-4.03-.83-1.32-5.53-1.66-10.5-.76M2076.04,1432.35c-5.13,0-9.28,2.95-9.28,6.59s4.16,6.6,9.28,6.6,9.28-2.95,9.28-6.6-4.16-6.59-9.28-6.59M2057.29,1393c.1-5.13-3.13-9.34-7.2-9.4-4.07-.06-7.46,4.04-7.55,9.17-.1,5.13,3.13,9.33,7.2,9.39,4.08.06,7.46-4.04,7.55-9.17M2127.94,1412.87c.95-5.04-1.18-9.67-4.76-10.35-3.58-.68-7.25,2.86-8.2,7.9-.95,5.04,1.18,9.67,4.76,10.35,3.58.67,7.25-2.86,8.2-7.9M2094.6,1360.29c-5.13,0-9.28,2.95-9.28,6.6s4.16,6.59,9.28,6.59,9.28-2.95,9.28-6.59-4.16-6.6-9.28-6.6M2085.65,1393.02c-5.13,0-9.28,4.16-9.28,9.29s4.16,9.28,9.28,9.28,9.28-4.16,9.28-9.28-4.16-9.29-9.28-9.29M2088.43,1340.57c33.87,0,61.33,27.47,61.33,61.33s-27.46,61.33-61.33,61.33-61.33-27.47-61.33-61.33,27.47-61.33,61.33-61.33"/>
          </g>
        </g>
      </g>
    </g>
  </g>
</svg>