<?xml version="1.0" encoding="UTF-8"?>
<svg id="Layer_1" xmlns="http://www.w3.org/2000/svg" version="1.1" viewBox="738 0 670 149">
  <!-- Generator: Adobe Illustrator 29.3.1, SVG Export Plug-In . SVG Version: 2.1.0 Build 151)  -->
  <defs>
    <style>
      .st0 {
        fill: #0d375e;
      }
    </style>
  </defs>
  <path class="st0" d="M760.1102152,27.6232684h33.7203645c4.7086599,0,9.113607.4556806,13.3666051,1.2151479,4.2529981.9113613,7.898478,2.2784018,10.936347,4.4049095,3.1897254,2.1265077,5.6200762,4.8605901,7.4428162,8.5060338,1.8227399,3.4935482,2.7340636,8.0503517,2.7340636,13.3666225s-.9113236,9.7211802-2.5822072,13.3666225c-1.6707909,3.6454451-4.1011417,6.5314172-6.9870616,8.6579278-3.037869,2.1265106-6.5313998,3.6454451-10.6325415,4.5568035-4.1011417.9113584-8.5059961,1.3670434-13.3666051,1.3670434h-14.5817805v35.3911728h-20.049954l-.0000464-90.8322836ZM780.1601692,66.0523117h13.3666051c1.8227399,0,3.4935308-.151894,5.1644144-.4556792,1.6707909-.3037881,3.1897254-.9113613,4.5568035-1.6708285,1.3670781-.7594673,2.4302581-1.9746137,3.1897254-3.3416571.7594673-1.3670405,1.2151291-3.189763,1.2151291-5.3162708,0-2.2784018-.6076109-4.1011243-1.6707909-5.6200588-1.0632727-1.3670405-2.4302581-2.4302958-4.1011417-3.3416571-1.6707909-.7594673-3.4935308-1.2151464-5.6200762-1.5189345-2.1265454-.151894-3.9491926-.3037881-5.9238816-.3037881h-10.3287361v21.568874h.1519491Z"/>
  <path class="st0" d="M841.0694057,27.6232684h33.7203645c4.7086599,0,9.113607.4556806,13.3666051,1.2151479,4.2529981.9113613,7.898478,2.2784018,10.936347,4.4049095,3.1897254,2.1265077,5.6200762,4.8605901,7.4428162,8.5060338,1.8227399,3.4935482,2.7340636,8.0503517,2.7340636,13.3666225s-.9113236,9.7211802-2.5822072,13.3666225c-1.6707909,3.6454451-4.1011417,6.5314172-6.9870616,8.6579278-3.037869,2.1265106-6.5313998,3.6454451-10.6325415,4.5568035-4.1011417.9113584-8.5059961,1.3670434-13.3666051,1.3670434h-14.5817342v35.3911728h-20.049954l-.0000927-90.8322836ZM860.9675033,66.0523117h13.3666051c1.8227399,0,3.4935308-.151894,5.1644144-.4556792,1.6707909-.3037881,3.1897254-.9113613,4.5568035-1.6708285,1.3670781-.7594673,2.4302581-1.9746137,3.1897254-3.3416571.7594673-1.3670405,1.2151291-3.189763,1.2151291-5.3162708,0-2.2784018-.6076109-4.1011243-1.6707909-5.6200588-1.0632727-1.3670405-2.4302581-2.4302958-4.1011417-3.3416571-1.6707909-.7594673-3.4935308-1.2151464-5.6200762-1.5189345-2.1265454-.151894-3.9491926-.3037881-5.9238816-.3037881h-10.3287361v21.568874h.1519491Z"/>
  <path class="st0" d="M942.2304993,27.6232684h16.5564232l39.4922971,90.8322836h-22.6321612l-7.898478-19.2904694h-35.239299l-7.5946725,19.2904694h-22.0245503l39.3404407-90.8322836ZM949.9770282,54.0527297l-11.0882033,28.2521824h22.1764067l-11.0882033-28.2521824Z"/>
  <path class="st0" d="M1053.8721854,45.2429078h-25.9737429v-17.6196394h71.8455835v17.7715334h-25.9737429v73.2126414h-20.049954l.1518564-73.3645354Z"/>
  <path class="st0" d="M1105.060204,73.0394081c0-7.2908845,1.2151291-13.8223046,3.6454799-19.7461486,2.4302581-5.923844,5.7719326-10.9363296,10.1768797-15.037451,4.4049471-4.1011229,9.5692688-7.2908859,15.4931505-9.5692877,5.9238816-2.2784018,12.6071378-3.3416556,19.5942922-3.3416556,7.1390107,0,13.6704105,1.0632539,19.5942922,3.3416556,5.9238816,2.2784018,11.2401524,5.4681633,15.4931505,9.5692877,4.4049471,4.1011243,7.7465289,9.113607,10.1768797,15.037451,2.4303508,5.923844,3.6454799,12.4552641,3.6454799,19.7461486s-1.2151291,13.8223017-3.6454799,19.7461486c-2.4302581,5.9238469-5.7719326,10.9363296-10.1768797,15.0374539-4.4049471,4.1011243-9.5692688,7.2908903-15.4931505,9.569292-5.9238816,2.2784018-12.6071378,3.3416513-19.5942922,3.3416513-7.1390107,0-13.6704105-1.0632495-19.5942922-3.3416513-5.9238816-2.2784018-11.2401524-5.4681619-15.4931505-9.5692862-4.4049471-4.1011243-7.7465289-9.113607-10.1768797-15.0374481-2.4303508-5.9238411-3.6454799-12.4552699-3.6454799-19.7461601ZM1125.8696252,73.0394081c0,4.2530155.6076109,8.2022486,1.9745963,11.6957968,1.3670781,3.4935482,3.1897254,6.6833141,5.7719326,9.2654982,2.4302581,2.5821898,5.4681271,4.7086946,8.9617507,6.075738,3.4935308,1.5189345,7.2908671,2.1265106,11.5438651,2.1265106s8.2022834-.7594673,11.5438651-2.1265106c3.4935308-1.5189345,6.3795435-3.4935482,8.9617507-6.075738,2.4302581-2.5821898,4.4049471-5.6200588,5.7719326-9.2654982,1.3670781-3.4935482,1.9745963-7.4427814,1.9745963-11.6957968s-.6076109-8.0503517-1.9745963-11.6957968c-1.3670781-3.6454422-3.1897254-6.6833112-5.7719326-9.2655011-2.4302581-2.5821898-5.4681271-4.7086975-8.9617507-6.075738-3.4935308-1.5189345-7.2908671-2.1265077-11.5438651-2.1265077s-8.2022834.7594673-11.5438651,2.1265077c-3.4935308,1.5189345-6.3795435,3.4935482-8.9617507,6.075738-2.4302581,2.5821898-4.4049471,5.77195-5.7719326,9.2655011-1.3669854,3.493554-1.9745963,7.4427814-1.9745963,11.6957968Z"/>
  <path class="st0" d="M1293.4080825,83.3681673c0,5.3162708-.7594673,10.3287535-2.4302581,14.885557s-4.1011417,8.5060309-7.2908671,11.847688c-3.1897254,3.3416571-7.1390107,5.9238469-11.9996197,7.8984548-4.860609,1.8227168-10.3287361,2.8859779-16.5564232,2.8859779-6.3795435,0-11.8476706-.9113584-16.7082795-2.8859779-4.860609-1.8227168-8.8098016-4.5568035-11.9996197-7.8984606-3.1897254-3.3416571-5.6200762-7.2908845-7.2908671-11.847688-1.6707909-4.5568035-2.4302581-9.5692862-2.4302581-14.885557V27.471373h20.049954v55.1373213c0,2.8859779.4556618,5.4681619,1.3670781,7.8984606.9113236,2.4302929,2.1265454,4.4049124,3.7973363,6.2276291,1.6707909,1.8227226,3.6454799,3.1897601,5.7719326,4.1011243,2.2784018.9113584,4.7086599,1.5189345,7.4428162,1.5189345,2.5822072,0,5.1644144-.4556792,7.2908671-1.5189345,2.2784018-.9113584,4.1011417-2.2784018,5.7719326-4.1011243,1.6707909-1.8227226,2.8860126-3.7973363,3.7973363-6.2276291.9113236-2.4302929,1.3670781-5.0124827,1.3670781-7.8984606V27.471373h20.049954l-.0000927,55.8967944Z"/>
  <path class="st0" d="M1311.939102,27.6232684h35.239299c4.5568035,0,8.9617507.4556806,13.2147487,1.3670412,4.1011417.9113606,7.7465289,2.4302951,10.936347,4.5568042,3.1897254,2.1265077,5.6200762,4.8605901,7.4428162,8.5060338,1.8227399,3.4935482,2.7340636,8.0503517,2.7340636,13.2147313,0,6.3795261-1.6707909,11.847688-5.0124653,16.4044915-3.3416745,4.5568035-8.2022834,7.2908845-14.5817342,8.5060309l23.087823,38.4290418h-23.9991466l-18.9866813-36.302537h-9.8730743v36.302537h-20.049954l-.1520418-90.9841748ZM1331.8371996,65.1409504h11.8476706c1.8227399,0,3.6454799,0,5.7719326-.151894,1.9745963-.151894,3.7973363-.4556792,5.4681271-1.2151464,1.6707909-.6075732,3.037869-1.6708285,4.1011417-3.037869,1.0632727-1.3670405,1.6707909-3.3416571,1.6707909-5.77195,0-2.2784018-.4556618-4.1011243-1.3670781-5.4681648-.9113236-1.3670405-2.1265454-2.4302958-3.6454799-3.189763-1.5189345-.7594673-3.1897254-1.2151464-5.0124653-1.5189345-1.8227399-.3037881-3.7973363-.4556792-5.4681271-.4556792h-13.0627997v20.809401h-.3037127Z"/>
</svg>